# xmcd
#
# Track frame offsets: 
#        150
#        14677
#        27592
#        38776
#        57598
#        73566
#        85293
#        94951
#        105598
#        120867
#        142702
#        153951
#
# Disc length: 2204 seconds
#
# Revision: 0
# Processed by: cddbd v1.5.2PL0 Copyright (c) Steve Scherf et al.
# Submitted via: ExactAudioCopy v0.95a3
#
DISCID=98089a0c
DTITLE=Various Artist - Open Country
DYEAR=2007
DGENRE=Country
TTITLE0=Glen Campbell - Rhinestone Cowboy
TTITLE1=Willie Nelson - Crazy
TTITLE2=Conway Twitty - It's Only Make Believe
TTITLE3=Juice Newton - Angel of the Morning
TTITLE4=Kenny Rogers - The Gambler
TTITLE5=Crystal Gayle - Don't it Make My Brown Eyes Blue
TTITLE6=George Jones - The Race is On
TTITLE7=Linda Rhonstadt - Silver Threads and Golden Needles
TTITLE8=Jessi Colter - I'm Not Lisa
TTITLE9=Nitty Gritty Dirt Band - Tennessee Stud
TTITLE10=Freddie Hart - Easy Loving
TTITLE11=Sonny James - Young Love
EXTD=
EXTT0=
EXTT1=
EXTT2=
EXTT3=
EXTT4=
EXTT5=
EXTT6=
EXTT7=
EXTT8=
EXTT9=
EXTT10=
EXTT11=
PLAYORDER=
